{
	"asset":{
		"generator":"Khronos glTF Blender I/O v4.0.43",
		"version":"2.0"
	},
	"extensionsUsed":[
		"KHR_materials_specular",
		"KHR_materials_ior"
	],
	"scene":0,
	"scenes":[
		{
			"name":"Scene",
			"nodes":[
				4
			]
		}
	],
	"nodes":[
		{
			"mesh":0,
			"name":"Beak",
			"scale":[
				0.800000011920929,
				0.8199999928474426,
				0.8700000047683716
			],
			"translation":[
				0,
				-0.3767992854118347,
				1.3278870582580566
			]
		},
		{
			"mesh":1,
			"name":"Eyes",
			"scale":[
				0.8012087345123291,
				0.8012087345123291,
				0.8012087345123291
			],
			"translation":[
				-0.0024684667587280273,
				0.5170798301696777,
				0.8752630949020386
			]
		},
		{
			"mesh":2,
			"name":"leftWind",
			"scale":[
				0.6460000276565552,
				1,
				1.399999976158142
			],
			"translation":[
				0.8449740409851074,
				0.022146575152873993,
				-1.1405493021011353
			]
		},
		{
			"mesh":3,
			"name":"rightWind",
			"scale":[
				0.6460000276565552,
				1,
				1.399999976158142
			],
			"translation":[
				-0.851164698600769,
				0.022146575152873993,
				-1.1405494213104248
			]
		},
		{
			"children":[
				0,
				1,
				2,
				3
			],
			"mesh":4,
			"name":"Body"
		}
	],
	"materials":[
		{
			"doubleSided":true,
			"extensions":{
				"KHR_materials_specular":{
					"specularColorFactor":[
						1.7222222089767456,
						1.7222222089767456,
						1.7222222089767456
					]
				},
				"KHR_materials_ior":{
					"ior":1.4500000476837158
				}
			},
			"name":"Beak",
			"pbrMetallicRoughness":{
				"baseColorFactor":[
					0.982131838798523,
					0.29831042885780334,
					0.02029603160917759,
					1
				],
				"metallicFactor":0,
				"roughnessFactor":0.06561678647994995
			}
		},
		{
			"doubleSided":true,
			"extensions":{
				"KHR_materials_specular":{
					"specularColorFactor":[
						1.0833333730697632,
						1.0833333730697632,
						1.0833333730697632
					]
				},
				"KHR_materials_ior":{
					"ior":1.4500000476837158
				}
			},
			"name":"Eye",
			"pbrMetallicRoughness":{
				"baseColorFactor":[
					0.9822506308555603,
					1,
					0.9559733867645264,
					1
				],
				"metallicFactor":0,
				"roughnessFactor":0.2856517732143402
			}
		},
		{
			"doubleSided":true,
			"extensions":{
				"KHR_materials_specular":{
					"specularFactor":0.08333330601453781
				},
				"KHR_materials_ior":{
					"ior":1.4500000476837158
				}
			},
			"name":"Pupil",
			"pbrMetallicRoughness":{
				"baseColorFactor":[
					0,
					0,
					0,
					1
				],
				"metallicFactor":0,
				"roughnessFactor":0
			}
		},
		{
			"doubleSided":true,
			"name":"windBody",
			"pbrMetallicRoughness":{
				"baseColorFactor":[
					0.13345427811145782,
					0.16197828948497772,
					0.9465992450714111,
					1
				],
				"metallicFactor":0.8979591727256775,
				"roughnessFactor":0.6054421663284302
			}
		}
	],
	"meshes":[
		{
			"name":"Cube.002",
			"primitives":[
				{
					"attributes":{
						"POSITION":0,
						"NORMAL":1,
						"TEXCOORD_0":2
					},
					"indices":3,
					"material":0
				}
			]
		},
		{
			"name":"Sphere",
			"primitives":[
				{
					"attributes":{
						"POSITION":4,
						"NORMAL":5,
						"TEXCOORD_0":6
					},
					"indices":7,
					"material":1
				},
				{
					"attributes":{
						"POSITION":8,
						"NORMAL":9,
						"TEXCOORD_0":10
					},
					"indices":11,
					"material":2
				}
			]
		},
		{
			"name":"Cube.003",
			"primitives":[
				{
					"attributes":{
						"POSITION":12,
						"NORMAL":13,
						"TEXCOORD_0":14
					},
					"indices":15,
					"material":3
				}
			]
		},
		{
			"name":"Cube.004",
			"primitives":[
				{
					"attributes":{
						"POSITION":16,
						"NORMAL":17,
						"TEXCOORD_0":18
					},
					"indices":15,
					"material":3
				}
			]
		},
		{
			"name":"Cube.001",
			"primitives":[
				{
					"attributes":{
						"POSITION":19,
						"NORMAL":20,
						"TEXCOORD_0":21
					},
					"indices":22,
					"material":3
				}
			]
		}
	],
	"accessors":[
		{
			"bufferView":0,
			"componentType":5126,
			"count":882,
			"max":[
				0.9079347252845764,
				0.6173272728919983,
				1.0465224981307983
			],
			"min":[
				-0.9079350233078003,
				-0.5208913683891296,
				-0.5039123296737671
			],
			"type":"VEC3"
		},
		{
			"bufferView":1,
			"componentType":5126,
			"count":882,
			"type":"VEC3"
		},
		{
			"bufferView":2,
			"componentType":5126,
			"count":882,
			"type":"VEC2"
		},
		{
			"bufferView":3,
			"componentType":5123,
			"count":4608,
			"type":"SCALAR"
		},
		{
			"bufferView":4,
			"componentType":5126,
			"count":1054,
			"max":[
				1.1010730266571045,
				0.7070467472076416,
				0.49333083629608154
			],
			"min":[
				-1.1010730266571045,
				-0.5463934540748596,
				-0.6950861215591431
			],
			"type":"VEC3"
		},
		{
			"bufferView":5,
			"componentType":5126,
			"count":1054,
			"type":"VEC3"
		},
		{
			"bufferView":6,
			"componentType":5126,
			"count":1054,
			"type":"VEC2"
		},
		{
			"bufferView":7,
			"componentType":5123,
			"count":5568,
			"type":"SCALAR"
		},
		{
			"bufferView":8,
			"componentType":5126,
			"count":130,
			"max":[
				0.9675309658050537,
				0.2920888066291809,
				0.23148144781589508
			],
			"min":[
				-0.9675309658050537,
				0.05214790627360344,
				0.02945152297616005
			],
			"type":"VEC3"
		},
		{
			"bufferView":9,
			"componentType":5126,
			"count":130,
			"type":"VEC3"
		},
		{
			"bufferView":10,
			"componentType":5126,
			"count":130,
			"type":"VEC2"
		},
		{
			"bufferView":11,
			"componentType":5123,
			"count":192,
			"type":"SCALAR"
		},
		{
			"bufferView":12,
			"componentType":5126,
			"count":305,
			"max":[
				0.27231401205062866,
				0.5679421424865723,
				0.8530537486076355
			],
			"min":[
				-0.2723139822483063,
				-0.67558753490448,
				-0.6630178689956665
			],
			"type":"VEC3"
		},
		{
			"bufferView":13,
			"componentType":5126,
			"count":305,
			"type":"VEC3"
		},
		{
			"bufferView":14,
			"componentType":5126,
			"count":305,
			"type":"VEC2"
		},
		{
			"bufferView":15,
			"componentType":5123,
			"count":1536,
			"type":"SCALAR"
		},
		{
			"bufferView":16,
			"componentType":5126,
			"count":305,
			"max":[
				0.27231401205062866,
				0.5679421424865723,
				0.8530537486076355
			],
			"min":[
				-0.2723139822483063,
				-0.67558753490448,
				-0.6630178689956665
			],
			"type":"VEC3"
		},
		{
			"bufferView":17,
			"componentType":5126,
			"count":305,
			"type":"VEC3"
		},
		{
			"bufferView":18,
			"componentType":5126,
			"count":305,
			"type":"VEC2"
		},
		{
			"bufferView":19,
			"componentType":5126,
			"count":309,
			"max":[
				0.7918176054954529,
				1.0898851156234741,
				1.1700196266174316
			],
			"min":[
				-0.7918175458908081,
				-1.0847585201263428,
				-1.4740864038467407
			],
			"type":"VEC3"
		},
		{
			"bufferView":20,
			"componentType":5126,
			"count":309,
			"type":"VEC3"
		},
		{
			"bufferView":21,
			"componentType":5126,
			"count":309,
			"type":"VEC2"
		},
		{
			"bufferView":22,
			"componentType":5123,
			"count":1536,
			"type":"SCALAR"
		}
	],
	"bufferViews":[
		{
			"buffer":0,
			"byteLength":10584,
			"byteOffset":0,
			"target":34962
		},
		{
			"buffer":0,
			"byteLength":10584,
			"byteOffset":10584,
			"target":34962
		},
		{
			"buffer":0,
			"byteLength":7056,
			"byteOffset":21168,
			"target":34962
		},
		{
			"buffer":0,
			"byteLength":9216,
			"byteOffset":28224,
			"target":34963
		},
		{
			"buffer":0,
			"byteLength":12648,
			"byteOffset":37440,
			"target":34962
		},
		{
			"buffer":0,
			"byteLength":12648,
			"byteOffset":50088,
			"target":34962
		},
		{
			"buffer":0,
			"byteLength":8432,
			"byteOffset":62736,
			"target":34962
		},
		{
			"buffer":0,
			"byteLength":11136,
			"byteOffset":71168,
			"target":34963
		},
		{
			"buffer":0,
			"byteLength":1560,
			"byteOffset":82304,
			"target":34962
		},
		{
			"buffer":0,
			"byteLength":1560,
			"byteOffset":83864,
			"target":34962
		},
		{
			"buffer":0,
			"byteLength":1040,
			"byteOffset":85424,
			"target":34962
		},
		{
			"buffer":0,
			"byteLength":384,
			"byteOffset":86464,
			"target":34963
		},
		{
			"buffer":0,
			"byteLength":3660,
			"byteOffset":86848,
			"target":34962
		},
		{
			"buffer":0,
			"byteLength":3660,
			"byteOffset":90508,
			"target":34962
		},
		{
			"buffer":0,
			"byteLength":2440,
			"byteOffset":94168,
			"target":34962
		},
		{
			"buffer":0,
			"byteLength":3072,
			"byteOffset":96608,
			"target":34963
		},
		{
			"buffer":0,
			"byteLength":3660,
			"byteOffset":99680,
			"target":34962
		},
		{
			"buffer":0,
			"byteLength":3660,
			"byteOffset":103340,
			"target":34962
		},
		{
			"buffer":0,
			"byteLength":2440,
			"byteOffset":107000,
			"target":34962
		},
		{
			"buffer":0,
			"byteLength":3708,
			"byteOffset":109440,
			"target":34962
		},
		{
			"buffer":0,
			"byteLength":3708,
			"byteOffset":113148,
			"target":34962
		},
		{
			"buffer":0,
			"byteLength":2472,
			"byteOffset":116856,
			"target":34962
		},
		{
			"buffer":0,
			"byteLength":3072,
			"byteOffset":119328,
			"target":34963
		}
	],
	"buffers":[
		{
			"byteLength":122400,
			"uri":"bird.bin"
		}
	]
}
