{
	"asset":{
		"generator":"Khronos glTF Blender I/O v4.0.43",
		"version":"2.0"
	},
	"extensionsUsed":[
		"KHR_materials_specular",
		"KHR_materials_ior"
	],
	"scene":0,
	"scenes":[
		{
			"name":"Scene",
			"nodes":[
				0
			]
		}
	],
	"nodes":[
		{
			"mesh":0,
			"name":"Cylinder"
		}
	],
	"materials":[
		{
			"doubleSided":true,
			"extensions":{
				"KHR_materials_specular":{
					"specularFactor":0.7222222089767456
				},
				"KHR_materials_ior":{
					"ior":7.25
				}
			},
			"name":"Pipa",
			"pbrMetallicRoughness":{
				"baseColorFactor":[
					0.007165133021771908,
					0.3588404655456543,
					0,
					1
				],
				"metallicFactor":0.7472659945487976,
				"roughnessFactor":0.3381451964378357
			}
		}
	],
	"meshes":[
		{
			"name":"Cylinder",
			"primitives":[
				{
					"attributes":{
						"POSITION":0,
						"NORMAL":1,
						"TEXCOORD_0":2
					},
					"indices":3,
					"material":0
				}
			]
		}
	],
	"accessors":[
		{
			"bufferView":0,
			"componentType":5126,
			"count":832,
			"max":[
				1.1546674966812134,
				5.227946758270264,
				1.1546674966812134
			],
			"min":[
				-1.154667615890503,
				-5.018274307250977,
				-1.1546673774719238
			],
			"type":"VEC3"
		},
		{
			"bufferView":1,
			"componentType":5126,
			"count":832,
			"type":"VEC3"
		},
		{
			"bufferView":2,
			"componentType":5126,
			"count":832,
			"type":"VEC2"
		},
		{
			"bufferView":3,
			"componentType":5123,
			"count":1524,
			"type":"SCALAR"
		}
	],
	"bufferViews":[
		{
			"buffer":0,
			"byteLength":9984,
			"byteOffset":0,
			"target":34962
		},
		{
			"buffer":0,
			"byteLength":9984,
			"byteOffset":9984,
			"target":34962
		},
		{
			"buffer":0,
			"byteLength":6656,
			"byteOffset":19968,
			"target":34962
		},
		{
			"buffer":0,
			"byteLength":3048,
			"byteOffset":26624,
			"target":34963
		}
	],
	"buffers":[
		{
			"byteLength":29672,
			"uri":"tube.bin"
		}
	]
}
